<?xml version="1.0" encoding="UTF-8" standalone="no"?>
<!-- Created with Inkscape (http://www.inkscape.org/) -->

<svg
   xmlns:dc="http://purl.org/dc/elements/1.1/"
   xmlns:cc="http://creativecommons.org/ns#"
   xmlns:rdf="http://www.w3.org/1999/02/22-rdf-syntax-ns#"
   xmlns:svg="http://www.w3.org/2000/svg"
   xmlns="http://www.w3.org/2000/svg"
   xmlns:sodipodi="http://sodipodi.sourceforge.net/DTD/sodipodi-0.dtd"
   xmlns:inkscape="http://www.inkscape.org/namespaces/inkscape"
   width="210mm"
   height="297mm"
   viewBox="0 0 210 297"
   version="1.1"
   id="svg20397"
   inkscape:version="0.92.5 (2060ec1f9f, 2020-04-08)"
   sodipodi:docname="Oakley.svg">
  <defs
     id="defs20391" />
  <sodipodi:namedview
     id="base"
     pagecolor="#ffffff"
     bordercolor="#666666"
     borderopacity="1.0"
     inkscape:pageopacity="0.0"
     inkscape:pageshadow="2"
     inkscape:zoom="2.8"
     inkscape:cx="194.65677"
     inkscape:cy="944.40585"
     inkscape:document-units="mm"
     inkscape:current-layer="layer1"
     showgrid="false"
     inkscape:window-width="1920"
     inkscape:window-height="1017"
     inkscape:window-x="1912"
     inkscape:window-y="-8"
     inkscape:window-maximized="1" />
  <metadata
     id="metadata20394">
    <rdf:RDF>
      <cc:Work
         rdf:about="">
        <dc:format>image/svg+xml</dc:format>
        <dc:type
           rdf:resource="http://purl.org/dc/dcmitype/StillImage" />
        <dc:title></dc:title>
      </cc:Work>
    </rdf:RDF>
  </metadata>
  <g
     inkscape:label="Layer 1"
     inkscape:groupmode="layer"
     id="layer1">
    <path
       style="opacity:1;fill:#000000;fill-opacity:1;stroke:none;stroke-width:0.15874015;stroke-miterlimit:4;stroke-dasharray:none;stroke-dashoffset:6.72755909;stroke-opacity:1"
       d="M 272.07227 74.519531 A 84.000001 84.000001 0 0 0 188.07227 158.51953 A 84.000001 84.000001 0 0 0 272.07227 242.51953 A 84.000001 84.000001 0 0 0 356.07227 158.51953 A 84.000001 84.000001 0 0 0 272.07227 74.519531 z M 272.07227 86.449219 A 47.999999 47.999999 0 0 1 320.07227 134.44922 A 47.999999 47.999999 0 0 1 272.07227 182.44922 A 47.999999 47.999999 0 0 1 224.07227 134.44922 A 47.999999 47.999999 0 0 1 272.07227 86.449219 z "
       transform="scale(0.26458333)"
       id="path20942" />
  </g>
</svg>
